<svg xmlns="http://www.w3.org/2000/svg" viewBox="0 0 301.27 300.11">
  <defs>
    <style>
      .a3cf7292-f43b-4551-8d6c-4b26bd0d7fb4 {
        opacity: 0.15;
      }

      .b4c6ab89-f00a-4876-bcfd-bd7d56856f3c {
        fill: #d5b100;
      }

      .b2e1b1f9-fecb-4da5-899a-3af0820ca29e, .b4c6ab89-f00a-4876-bcfd-bd7d56856f3c, .e975f90a-b250-49c8-99bc-e84a492de619 {
        fill-rule: evenodd;
      }

      .e975f90a-b250-49c8-99bc-e84a492de619 {
        fill: #e6d800;
      }

      .b2e1b1f9-fecb-4da5-899a-3af0820ca29e {
        fill: #fff;
      }
    </style>
  </defs>
  <g id="e27be1e7-d734-401d-8e1b-798d78c74115" data-name="Layer 2">
    <g id="b66befc6-767f-446b-aa74-8205e81d4799" data-name="Layer 1">
      <g>
        <path class="a3cf7292-f43b-4551-8d6c-4b26bd0d7fb4" d="M298.43,131.72A140.39,140.39,0,1,0,290.32,214,140.18,140.18,0,0,0,298.43,131.72Z"/>
        <g>
          <path class="b4c6ab89-f00a-4876-bcfd-bd7d56856f3c" d="M278,112.47A140.4,140.4,0,1,1,.71,126.31,140.43,140.43,0,0,0,278,112.47Z"/>
          <path class="e975f90a-b250-49c8-99bc-e84a492de619" d="M278,112.47A140.42,140.42,0,0,1,.71,126.31,140.4,140.4,0,0,1,278,112.47Z"/>
          <path class="b2e1b1f9-fecb-4da5-899a-3af0820ca29e" d="M189.25,8.82c-.65,1.43-1.3,2.88-1.91,4.34a140.38,140.38,0,0,0,75.15,183.77c1.82.77,3.64,1.48,5.47,2.16.66-1.44,1.3-2.88,1.92-4.35q2.25-5.36,4-10.8c-1.71-.63-3.41-1.29-5.11-2A124.13,124.13,0,0,1,202.33,19.45c.59-1.39,1.2-2.75,1.82-4.11Q199.56,13,194.72,11c-1.82-.76-3.64-1.47-5.47-2.15ZM8.84,91.47A144,144,0,0,0,4,107a123.46,123.46,0,0,1,13.23,4.69A124.13,124.13,0,0,1,85.51,269.64l.59.25a142.07,142.07,0,0,0,14.72,5.24A140.4,140.4,0,0,0,23.56,96.7,141.16,141.16,0,0,0,8.84,91.47Z"/>
        </g>
      </g>
    </g>
  </g>
</svg>
