<svg xmlns="http://www.w3.org/2000/svg" viewBox="0 0 423.02 209.7">
  <defs>
    <style>
      .bc9ee317-a3a5-4cfd-acaa-6cad17f30d8d {
        fill: #fff;
      }
    </style>
  </defs>
  <g id="a75ecac8-379e-462d-b3f3-128412c9453e" data-name="Layer 2">
    <g id="bc23aa93-da9f-4477-a272-38487acfc4c6" data-name="Layer 1">
      <g>
        <g>
          <path d="M107.1,95.28a66.06,66.06,0,0,1-18.55,13.4,54,54,0,0,1-23.72,5.66q-19.71,0-30.33-14.23T28.4,66Q33,46,50.27,31.78T87.18,17.55a38.8,38.8,0,0,1,21.09,5.73,33.84,33.84,0,0,1,12.44,13.33L101.5,49.23q-5.37-11-19.1-11-11.13,0-20.93,8.12A35.63,35.63,0,0,0,49,66Q46.36,77.52,52.4,85.62t17.19,8.12q13.65,0,24.18-11Z" transform="translate(-14.35 -17.55)"/>
          <path d="M176.18,17.55q19.71,0,30.33,14.23Q217.28,46,212.66,66t-21.92,34.13q-17.2,14.24-36.91,14.23t-30.39-14.23Q112.67,86,117.28,66t21.93-34.2Q156.42,17.54,176.18,17.55ZM158.59,93.74q11.15,0,20.94-8.12A35.36,35.36,0,0,0,192,66q2.66-11.46-3.38-19.64t-17.19-8.12q-11.21,0-21,8.12A35.57,35.57,0,0,0,138,66q-2.65,11.53,3.39,19.64T158.59,93.74Z" transform="translate(-14.35 -17.55)"/>
          <path d="M279.13,18.52h20.22l-14.61,63.3q-3.09,13.34-14.73,22.8T245.1,114q-13.33,0-20.61-9.46t-4.22-22.74l14.62-63.3h20.22l-14.62,63.3a9.69,9.69,0,0,0,1.58,8.5,9,9,0,0,0,7.68,3.54A14.25,14.25,0,0,0,259,90.32a15.2,15.2,0,0,0,5.5-8.5Z" transform="translate(-14.35 -17.55)"/>
          <path d="M332.32,113.38l-11.53-34-7.85,34H292.71l21.9-94.86h32.46q11.34,0,17.15,7.72T367.77,46q-2.55,13.26-11.88,21a35.27,35.27,0,0,1-13,6.83L357,113.38Zm15.12-66.59q1.53-8.05-5-8H330.17l-4,17.13h13a7,7,0,0,0,5.15-2.22A13.42,13.42,0,0,0,347.44,46.79Z" transform="translate(-14.35 -17.55)"/>
          <path d="M437.36,18.52l-4.65,20.15h-19l-17.25,74.71H376.31l17.24-74.71h-19l4.66-20.15Z" transform="translate(-14.35 -17.55)"/>
        </g>
        <g>
          <path class="bc9ee317-a3a5-4cfd-acaa-6cad17f30d8d" d="M34.26,141H89.5L85.27,159.3H48.37l-3.59,15.52h36.9l-4.23,18.33H40.55l-7.87,34.1H14.35Z" transform="translate(-14.35 -17.55)"/>
          <path class="bc9ee317-a3a5-4cfd-acaa-6cad17f30d8d" d="M107.21,141h18.34l-19.92,86.29H87.29Z" transform="translate(-14.35 -17.55)"/>
          <path class="bc9ee317-a3a5-4cfd-acaa-6cad17f30d8d" d="M161.77,141l14.73,44,10.19-44.16H205l-19.95,86.4H170.79L156,183l-10.22,44.29H127.44L147.36,141Z" transform="translate(-14.35 -17.55)"/>
          <path class="bc9ee317-a3a5-4cfd-acaa-6cad17f30d8d" d="M251.24,141q17.81,0,27.54,12.66t5.61,30.51q-4.12,17.81-19.69,30.46t-33.38,12.66H205.14L225.06,141Zm-15.69,67.95q10.2,0,19.14-7.26A31.31,31.31,0,0,0,266,184.13q2.37-10.24-3.22-17.51T247,159.36H239.2l-11.44,49.55Z" transform="translate(-14.35 -17.55)"/>
          <path class="bc9ee317-a3a5-4cfd-acaa-6cad17f30d8d" d="M311.77,141H367l-4.23,18.34H325.87l-3.58,15.52h36.9L355,193.15h-36.9l-3.64,15.76h36.9l-4.23,18.34H291.85Z" transform="translate(-14.35 -17.55)"/>
          <path class="bc9ee317-a3a5-4cfd-acaa-6cad17f30d8d" d="M399.07,227.25l-10.49-30.93-7.14,30.93H363L383,141h29.53q10.31,0,15.59,7t3.23,18Q429,178,420.51,185.13a32.29,32.29,0,0,1-11.8,6.21l12.79,35.91Zm13.75-60.57q1.4-7.32-4.58-7.32H397.11l-3.6,15.58h11.78a6.39,6.39,0,0,0,4.68-2A12.19,12.19,0,0,0,412.82,166.68Z" transform="translate(-14.35 -17.55)"/>
        </g>
      </g>
    </g>
  </g>
</svg>
